<svg width="22" height="22" viewBox="0 0 22 22" fill="none" xmlns="http://www.w3.org/2000/svg">
<path d="M21.42 10.3399L19.56 8.21994L19.82 5.40994C19.87 4.90994 19.53 4.44994 19.05 4.33994L16.29 3.70994L14.85 1.27994C14.59 0.849945 14.06 0.669945 13.6 0.869945L11 1.99994L8.41002 0.889945C7.95002 0.689945 7.41002 0.869945 7.16002 1.29994L5.71002 3.71994L2.96002 4.33994C2.47002 4.44994 2.13002 4.89994 2.18002 5.40994L2.44002 8.20994L0.58002 10.3399C0.25002 10.7199 0.25002 11.2799 0.58002 11.6599L2.44002 13.7799L2.18002 16.5999C2.13002 17.0999 2.47002 17.5599 2.95002 17.6699L5.71002 18.2999L7.15002 20.7199C7.41002 21.1499 7.94002 21.3299 8.41002 21.1299L11 19.9999L13.59 21.1099C14.05 21.3099 14.59 21.1299 14.84 20.6999L16.28 18.2699L19.04 17.6399C19.53 17.5299 19.86 17.0699 19.81 16.5699L19.55 13.7599L21.41 11.6399C21.75 11.2799 21.75 10.7199 21.42 10.3399ZM12 15.9999H10V13.9999H12V15.9999ZM11 11.9999C10.45 11.9999 10 11.5499 10 10.9999V6.99994C10 6.44994 10.45 5.99994 11 5.99994C11.55 5.99994 12 6.44994 12 6.99994V10.9999C12 11.5499 11.55 11.9999 11 11.9999Z" fill="#141414"/>
</svg>
