<svg width="13" height="13" viewBox="0 0 13 13" fill="none" xmlns="http://www.w3.org/2000/svg">
<path fill-rule="evenodd" clip-rule="evenodd" d="M5.82117 3.76478C6.05878 3.52716 6.17758 3.40836 6.31458 3.36384C6.43509 3.32468 6.5649 3.32468 6.6854 3.36384C6.8224 3.40835 6.94121 3.52716 7.17882 3.76477L9.23539 5.82134C9.473 6.05895 9.5918 6.17775 9.63631 6.31474C9.67547 6.43525 9.67547 6.56506 9.63632 6.68556C9.59181 6.82256 9.473 6.94136 9.2354 7.17897L3.6954 12.7191C3.59163 12.8229 3.53974 12.8748 3.47919 12.9119C3.42551 12.9448 3.36698 12.9691 3.30576 12.9838C3.23671 13.0003 3.16333 13.0003 3.01657 13.0003H0.96C0.623968 13.0003 0.455953 13.0003 0.327606 12.9349C0.214708 12.8774 0.12292 12.7856 0.0653961 12.6727C0 12.5444 0 12.3764 0 12.0403V9.98377C0 9.83702 0 9.76364 0.0165774 9.69459C0.0312748 9.63337 0.0555165 9.57484 0.0884124 9.52116C0.125516 9.46061 0.1774 9.40873 0.281167 9.30496L5.82117 3.76478ZM6.50001 5.91439L2 10.4145V11.0003H2.58578L7.0858 6.50017L6.50001 5.91439Z" fill="#ffffff"/>
<path d="M9.67881 1.26482L11.7354 3.32139C11.973 3.55898 12.0918 3.67778 12.1363 3.81476C12.1754 3.93526 12.1754 4.06506 12.1363 4.18556C12.0918 4.32256 11.973 4.44136 11.7354 4.67897L11.179 5.23555C10.9414 5.4732 10.8226 5.59203 10.6856 5.63655C10.565 5.67572 10.4352 5.67572 10.3147 5.63657C10.1777 5.59206 10.0589 5.47324 9.82126 5.23561L7.7647 3.17904C7.52711 2.94145 7.40831 2.82266 7.3638 2.68567C7.32464 2.56517 7.32464 2.43537 7.36378 2.31487C7.40828 2.17788 7.52706 2.05907 7.76463 1.82146L8.3211 1.26489C8.55871 1.02723 8.67751 0.908409 8.81452 0.863884C8.93503 0.824719 9.06484 0.824713 9.18536 0.863866C9.32236 0.908378 9.44118 1.02719 9.67881 1.26482Z" fill="#ffffff"/>
</svg>
